<svg width="16" height="18" viewBox="0 0 16 18" fill="none" xmlns="http://www.w3.org/2000/svg">
<path d="M13.6041 0H2.0272C1.23128 0 0.587314 0.998308 0.587314 2.21846L0.580078 15.5292C0.580078 16.7494 1.23128 17.7477 2.0272 17.7477H13.6041C14.4001 17.7477 15.0513 16.7494 15.0513 15.5292V2.21846C15.0513 0.998308 14.4001 0 13.6041 0ZM13.3147 4.71423L8.19915 9.61703C7.96761 9.83888 7.66372 9.83888 7.43218 9.61703L2.31662 4.71423C2.13573 4.53675 2.0272 4.23726 2.0272 3.91559C2.0272 3.1724 2.55539 2.72871 2.96782 3.11694L7.81567 7.76462L12.6635 3.11694C13.0759 2.72871 13.6041 3.1724 13.6041 3.91559C13.6041 4.23726 13.4956 4.53675 13.3147 4.71423Z" fill="#FFFDFD"/>
</svg>
